<?xml version="1.0" encoding="UTF-8"?>
<svg width="10px" height="14px" viewBox="0 0 10 14" version="1.1" xmlns="http://www.w3.org/2000/svg" xmlns:xlink="http://www.w3.org/1999/xlink">
    <!-- Generator: Sketch 47.1 (45422) - http://www.bohemiancoding.com/sketch -->
    <title>Arrow 1</title>
    <desc>Created with Sketch.</desc>
    <defs></defs>
    <g id="Mobile-v1.1" stroke="none" stroke-width="1" fill="none" fill-rule="evenodd">
        <g id="iPhone-7" transform="translate(-18.000000, -616.000000)" fill="#BFBFBF">
            <path d="M25.8424374,621.261336 L25.8425891,624.451589 L19.86945,618.47845 C19.4854327,618.094432 18.8628255,618.093707 18.4781491,618.478384 C18.0941683,618.862364 18.0941979,619.485667 18.4782152,619.869685 L24.4513543,625.842824 L21.2611012,625.842672 C20.9897976,625.842659 20.7435425,625.95256 20.5654645,626.130638 C20.3873864,626.308716 20.2774853,626.554971 20.2774983,626.826275 C20.2775241,627.370274 20.7171961,627.809946 21.2611948,627.809971 L26.8263987,627.810236 C27.4079622,627.804699 27.8100258,627.334458 27.8100016,626.826633 L27.809737,621.261429 C27.8097111,620.717431 27.3700391,620.277759 26.8260404,620.277733 C26.2820417,620.277707 25.8424115,620.717337 25.8424374,621.261336 Z" id="Arrow-1" transform="translate(23.000092, 623.000196) rotate(-315.000000) translate(-23.000092, -623.000196) "></path>
        </g>
    </g>
</svg>