<?xml version="1.0" encoding="UTF-8"?>
<svg width="70px" height="70px" viewBox="0 0 70 70" version="1.1" xmlns="http://www.w3.org/2000/svg" xmlns:xlink="http://www.w3.org/1999/xlink">
    <!-- Generator: Sketch 51.1 (57501) - http://www.bohemiancoding.com/sketch -->
    <title>email</title>
    <desc>Created with Sketch.</desc>
    <defs>
        <polygon id="path-1" points="34 11.9999903 34 0 0 0 0 11.9999903 0 23.9999806 34 23.9999806"></polygon>
    </defs>
    <g id="Page-1" stroke="none" stroke-width="1" fill="none" fill-rule="evenodd">
        <g id="iPad-Pro-Copy-4" transform="translate(-699.000000, -988.000000)">
            <g id="email" transform="translate(699.000000, 988.000000)">
                <circle id="Oval-Copy-6" fill="#262626" cx="35" cy="35" r="35"></circle>
                <g id="Page-1" transform="translate(18.000000, 23.000000)">
                    <mask id="mask-2" fill="white">
                        <use xlink:href="#path-1"></use>
                    </mask>
                    <g id="Clip-2"></g>
                    <path d="M22.6330109,11.6868973 L21.4817732,10.581129 C22.7619539,9.69251493 24.934947,7.6013975 28.0007525,4.30777675 L30.0563359,4.30777675 C26.5361346,8.11833446 24.0616929,10.5780413 22.6330109,11.6868973 Z M30.0563359,19.9843569 L28.9473144,19.9843569 L27.9841213,19.9843569 C24.9605838,16.7249674 22.8154488,14.6502923 21.5487163,13.7603315 C19.834235,12.5557985 14.213707,12.5393562 12.5257734,13.7110046 C11.2455927,14.5996187 9.07259963,16.6907361 6.00679414,19.9843569 L3.95121076,19.9843569 C7.47141206,16.1737992 9.94585372,13.7140923 11.3745357,12.6052363 C13.6123268,10.8683992 20.4640264,10.882195 22.6900475,12.6052363 C24.1228225,13.7142691 26.5782519,16.173976 30.0563359,19.9843569 Z M11.3487623,11.6868973 C9.9200803,10.5780413 7.44563864,8.11833446 3.92543734,4.30777676 L5.98102072,4.30777676 C9.04682621,7.6013975 11.2198193,9.69251493 12.5,10.581129 L11.3487623,11.6868973 Z M30.2835682,0.716496774 C27.6321477,-1.93548387e-05 17,-1.93548387e-05 17,-1.93548387e-05 C17,-1.93548387e-05 6.36785227,-1.93548387e-05 3.71643182,0.716496774 C2.25365909,1.11075484 1.10152273,2.27243226 0.710522727,3.74765806 C0,6.42133548 0,11.9999806 0,11.9999806 C0,11.9999806 0,17.5784323 0.710522727,20.2523032 C1.10152273,21.727529 2.25365909,22.8892065 3.71643182,23.2836581 C6.36785227,23.9999806 17,23.9999806 17,23.9999806 C17,23.9999806 27.6321477,23.9999806 30.2835682,23.2836581 C31.7463409,22.8892065 32.8984773,21.727529 33.2894773,20.2523032 C34,17.5784323 34,11.9999806 34,11.9999806 C34,11.9999806 34,6.42133548 33.2894773,3.74765806 C32.8984773,2.27243226 31.7463409,1.11075484 30.2835682,0.716496774 Z" id="Fill-1" fill="#F4F4F4" mask="url(#mask-2)" transform="translate(17.000000, 11.999981) rotate(-180.000000) translate(-17.000000, -11.999981) "></path>
                </g>
            </g>
        </g>
    </g>
</svg>