<?xml version="1.0" encoding="UTF-8"?>
<svg width="70px" height="70px" viewBox="0 0 70 70" version="1.1" xmlns="http://www.w3.org/2000/svg" xmlns:xlink="http://www.w3.org/1999/xlink">
    <!-- Generator: Sketch 47.1 (45422) - http://www.bohemiancoding.com/sketch -->
    <title>Buttons/Freelancer</title>
    <desc>Created with Sketch.</desc>
    <defs></defs>
    <g id="Tablet-v1.2" stroke="none" stroke-width="1" fill="none" fill-rule="evenodd">
        <g id="iPad-Pro" transform="translate(-156.000000, -283.000000)">
            <g id="Buttons/Freelancer" transform="translate(156.000000, 283.000000)">
                <g>
                    <circle id="Oval-Copy-7" fill="#262626" cx="35" cy="35" r="35"></circle>
                    <path d="M40.4957018,22 L43.2200618,25.8209276 L57.0045565,22 L40.4957018,22 Z M39.3667081,22 L35.381112,25.5939446 L42.0845828,25.8440488 L39.3667081,22 Z M23.8734966,22 L25.3047584,24.9338611 L33.1933342,25.4253286 L23.8734966,22 Z M28.0965084,37.2120909 L33.9244733,26.3400279 L17,25.4253286 L28.0965084,37.2120909 Z M28.7752016,37.901217 L34.2803149,43.8148997 L40.3530268,37.8623056 L42.2376906,26.7751021 L34.8371987,26.397549 L28.7752016,37.901217 Z M26.173779,51.75 L33.6303822,44.459757 L29.142322,39.6437697 L26.173779,51.75 Z" id="Page-1" fill="#F4F4F4"></path>
                </g>
            </g>
        </g>
    </g>
</svg>