<?xml version="1.0" encoding="UTF-8"?>
<svg width="70px" height="70px" viewBox="0 0 70 70" version="1.1" xmlns="http://www.w3.org/2000/svg" xmlns:xlink="http://www.w3.org/1999/xlink">
    <!-- Generator: Sketch 46.2 (44496) - http://www.bohemiancoding.com/sketch -->
    <title>LinkedIn</title>
    <desc>Created with Sketch.</desc>
    <defs>
        <polygon id="path-1" points="24.9991667 0 0 0 0 24.9998611 24.9991667 24.9998611 24.9991667 4.93432455e-15"></polygon>
    </defs>
    <g id="Page-1" stroke="none" stroke-width="1" fill="none" fill-rule="evenodd">
        <g id="iPad-Pro" transform="translate(-483.000000, -733.000000)">
            <g id="LinkedIn" transform="translate(483.000000, 733.000000)">
                <circle id="Oval-Copy-7" fill="#262626" cx="35" cy="35" r="35"></circle>
                <g id="Page-1" transform="translate(23.000000, 23.000000)">
                    <mask id="mask-2" fill="white">
                        <use xlink:href="#path-1"></use>
                    </mask>
                    <g id="Clip-2"></g>
                    <path d="M21.3033333,21.3026389 L17.5956944,21.3026389 L17.5956944,15.50125 C17.5956944,14.1172222 17.5720833,12.3373611 15.6693056,12.3373611 C13.7394444,12.3373611 13.4456944,13.8456944 13.4456944,15.4019444 L13.4456944,21.3026389 L9.74222222,21.3026389 L9.74222222,9.37208333 L13.2963889,9.37208333 L13.2963889,11.0033333 L13.3470833,11.0033333 C13.8415278,10.0651389 15.05125,9.07625 16.8554167,9.07625 C20.6095833,9.07625 21.3033333,11.5463889 21.3033333,14.7595833 L21.3033333,21.3026389 Z M5.56097222,7.74222222 C4.37,7.74222222 3.40958333,6.77902778 3.40958333,5.59152778 C3.40958333,4.40472222 4.37,3.44152778 5.56097222,3.44152778 C6.74708333,3.44152778 7.71027778,4.40472222 7.71027778,5.59152778 C7.71027778,6.77902778 6.74708333,7.74222222 5.56097222,7.74222222 L5.56097222,7.74222222 Z M3.70402778,21.3026389 L7.41583333,21.3026389 L7.41583333,9.37208333 L3.70402778,9.37208333 L3.70402778,21.3026389 Z M23.1498611,-0.000138888889 L1.84430556,-0.000138888889 C0.826944444,-0.000138888889 -0.000138888889,0.806805556 -0.000138888889,1.80263889 L-0.000138888889,23.1963889 C-0.000138888889,24.1915278 0.826944444,24.9998611 1.84430556,24.9998611 L23.1498611,24.9998611 C24.1693056,24.9998611 24.9991667,24.1915278 24.9991667,23.1963889 L24.9991667,1.80263889 C24.9991667,0.806805556 24.1693056,-0.000138888889 23.1498611,-0.000138888889 L23.1498611,-0.000138888889 Z" id="Fill-1" fill="#F4F4F4" mask="url(#mask-2)"></path>
                </g>
            </g>
        </g>
    </g>
</svg>