<?xml version="1.0" encoding="UTF-8"?>
<svg width="288px" height="288px" viewBox="0 0 288 288" version="1.1" xmlns="http://www.w3.org/2000/svg" xmlns:xlink="http://www.w3.org/1999/xlink">
    <!-- Generator: Sketch 46.2 (44496) - http://www.bohemiancoding.com/sketch -->
    <title>NoirID</title>
    <desc>Created with Sketch.</desc>
    <defs>
        <polygon id="path-1" points="143.9999 0 0 0 0 288 143.9999 288 287.9998 288 287.9998 0"></polygon>
    </defs>
    <g id="Page-1" stroke="none" stroke-width="1" fill="none" fill-rule="evenodd">
        <g id="iPad-Pro" transform="translate(-539.000000, -272.000000)">
            <g id="NoirID" transform="translate(539.000000, 272.000000)">
                <g id="Group-3">
                    <mask id="mask-2" fill="white">
                        <use xlink:href="#path-1"></use>
                    </mask>
                    <g id="Clip-2"></g>
                    <path d="M287.9998,144 C287.9998,223.529 223.5288,288 143.9998,288 C64.4708,288 -0.0002,223.529 -0.0002,144 C-0.0002,64.471 64.4708,0 143.9998,0 C223.5288,0 287.9998,64.471 287.9998,144" id="Fill-1" fill="#262626" mask="url(#mask-2)"></path>
                </g>
                <path d="M278.9696,194.2544 L227.0446,142.3294 L210.9996,105.7504 L200.8126,108.5314 L172.1876,116.1874 L168.8426,117.0884 L73.7336,154.6744 L70.6876,156.8904 L37.4706,175.3294 L37.2936,176.0944 L149.0646,287.8714 C208.7126,285.8064 259.1366,247.4954 278.9696,194.2544" id="Fill-4" fill="#161616"></path>
                <path d="M203.079,107.7891 L203.071,107.7591 L171.83,116.1411 L171.838,116.1701 C172.264,116.3831 181.728,121.2511 185.679,135.9741 C189.628,150.6951 183.871,159.6481 183.608,160.0451 L183.613,160.0631 L214.777,151.7021 L214.825,151.7021 C214.825,151.7021 214.834,151.6881 214.835,151.6861 L214.854,151.6811 L214.85,151.6641 C215.112,151.2661 220.869,142.3141 216.92,127.5921 C212.97,112.8701 203.505,108.0011 203.079,107.7891" id="Fill-6" fill="#F4F4F4"></path>
                <path d="M205.3319,107.1528 L205.3149,107.1558 L205.3399,107.1818 C205.7669,107.3948 215.2309,112.2628 219.1809,126.9858 C223.1309,141.7068 217.3729,150.6588 217.1109,151.0568 L217.1159,151.0738 L217.0969,151.0798 C217.0959,151.0808 217.0889,151.0918 217.0879,151.0938 L228.6509,147.9908 C240.1999,144.8928 247.1139,132.9088 244.0159,121.3608 L243.4959,119.4218 C240.3969,107.8728 228.4139,100.9598 216.8649,104.0578 L205.3319,107.1528 Z" id="Fill-8" fill="#F4F4F4"></path>
                <path d="M217.0829,151.0947 L217.0379,151.0947" id="Fill-10" fill="#F4F4F4"></path>
                <path d="M128.8553,174.7495 L181.1293,160.7255 L181.1773,160.7245 C181.1773,160.7245 181.1863,160.7105 181.1873,160.7095 L181.2073,160.7045 L181.2023,160.6865 C181.4643,160.2895 187.2213,151.3375 183.2723,136.6165 C179.3233,121.8955 169.8583,117.0275 169.4323,116.8155 L169.4243,116.7865 L116.9733,130.8575 C116.9733,130.8575 114.5783,131.3975 111.5913,133.0795 L74.5803,154.0045 L72.7533,155.0375 C73.9413,155.7395 77.6273,158.3395 79.2853,164.5155 C80.9413,170.6895 79.0523,174.7865 78.3753,175.9895 L80.4733,175.9695 L123.1443,175.5565 C123.1443,175.5565 125.6393,175.6045 128.8553,174.7495" id="Fill-12" fill="#F4F4F4"></path>
                <path d="M70.6786,156.711 L53.1046,166.483 L37.2936,175.28 C37.0896,175.386 36.9796,175.623 37.0406,175.854 C37.1006,176.075 37.3006,176.218 37.5186,176.222 L55.6366,175.918 L75.7406,175.582 C75.7406,175.582 78.4796,171.668 76.7436,165.198 C75.0086,158.729 70.6786,156.711 70.6786,156.711" id="Fill-14" fill="#F4F4F4"></path>
            </g>
        </g>
    </g>
</svg>