<?xml version="1.0" encoding="UTF-8"?>
<svg width="16px" height="16px" viewBox="0 0 16 16" version="1.1" xmlns="http://www.w3.org/2000/svg" xmlns:xlink="http://www.w3.org/1999/xlink">
    <!-- Generator: Sketch 47.1 (45422) - http://www.bohemiancoding.com/sketch -->
    <title>Notify5</title>
    <desc>Created with Sketch.</desc>
    <defs></defs>
    <g id="Tablet-v1.2" stroke="none" stroke-width="1" fill="none" fill-rule="evenodd">
        <g id="iPad-Pro" transform="translate(-593.000000, -623.000000)">
            <g id="Notify5" transform="translate(593.000000, 623.000000)">
                <circle id="Oval" fill="#FF3B30" cx="8" cy="8" r="8"></circle>
                <path d="M9.16999999,6.92 C9.48666824,7.120001 9.72833249,7.38499835 9.89499999,7.715 C10.0616675,8.04500165 10.145,8.409998 10.145,8.81 C10.145,9.2300021 10.0483343,9.6133316 9.85499999,9.96 C9.66166569,10.3066684 9.39666834,10.579999 9.05999999,10.78 C8.72333164,10.980001 8.34833539,11.08 7.93499999,11.08 C7.57499819,11.08 7.22166839,11.013334 6.87499999,10.88 C6.52833159,10.746666 6.25166769,10.5766677 6.04499999,10.37 L6.65499999,9.45 C6.78166729,9.5966674 6.95666554,9.71833285 7.17999999,9.815 C7.40333444,9.91166715 7.62166559,9.96 7.83499999,9.96 C8.15500159,9.96 8.41999894,9.85833435 8.62999999,9.655 C8.84000104,9.45166565 8.94499999,9.183335 8.94499999,8.85 C8.94499999,8.4766648 8.84000104,8.17500115 8.62999999,7.945 C8.41999894,7.71499885 8.12833519,7.6 7.75499999,7.6 C7.54166559,7.6 7.33666764,7.6299997 7.13999999,7.69 C6.94333234,7.7500003 6.72833449,7.846666 6.49499999,7.98 L6.48499999,7.98 L6.48499999,4.4 L9.69499999,4.4 L9.69499999,5.52 L7.48499999,5.52 L7.48499999,6.68 C7.66500089,6.6399998 7.84833239,6.62 8.03499999,6.62 C8.47500219,6.62 8.85333174,6.719999 9.16999999,6.92 Z" id="5" fill="#FFFFFF"></path>
            </g>
        </g>
    </g>
</svg>