<?xml version="1.0" encoding="UTF-8"?>
<svg width="16px" height="16px" viewBox="0 0 16 16" version="1.1" xmlns="http://www.w3.org/2000/svg" xmlns:xlink="http://www.w3.org/1999/xlink">
    <!-- Generator: Sketch 47.1 (45422) - http://www.bohemiancoding.com/sketch -->
    <title>Notify2</title>
    <desc>Created with Sketch.</desc>
    <defs></defs>
    <g id="Tablet-v1.2" stroke="none" stroke-width="1" fill="none" fill-rule="evenodd">
        <g id="iPad-Pro" transform="translate(-811.000000, -623.000000)">
            <g id="Notify2" transform="translate(811.000000, 623.000000)">
                <circle id="Oval" fill="#FF3B30" cx="8" cy="8" r="8"></circle>
                <path d="M10.44,9.88 L10.44,11 L5.83999999,11 L6.19999999,10.64 C6.86000329,9.9799967 7.37833144,9.44166875 7.75499999,9.025 C8.13166854,8.60833125 8.44499874,8.18833545 8.69499999,7.765 C8.94500124,7.34166455 9.06999999,6.9400019 9.06999999,6.56 C9.06999999,6.1999982 8.96000109,5.9233343 8.73999999,5.73 C8.51999889,5.5366657 8.24666829,5.44 7.91999999,5.44 C7.56666489,5.44 7.29333429,5.539999 7.09999999,5.74 C6.90666569,5.940001 6.80999999,6.1633321 6.80999999,6.41 C6.80999999,6.8233354 6.93999869,7.1666653 7.19999999,7.44 L6.48999999,8.09 C6.24999879,7.956666 6.05500074,7.71833505 5.90499999,7.375 C5.75499924,7.03166495 5.67999999,6.7200014 5.67999999,6.44 C5.67999999,6.0733315 5.77666569,5.7266683 5.96999999,5.4 C6.16333429,5.0733317 6.44499814,4.81166765 6.81499999,4.615 C7.18500184,4.41833235 7.61999749,4.32 8.11999999,4.32 C8.54000209,4.32 8.91499834,4.41833235 9.24499999,4.615 C9.57500164,4.81166765 9.82999909,5.0733317 10.01,5.4 C10.1900009,5.7266683 10.28,6.0799981 10.28,6.46 C10.28,6.8400019 10.1933342,7.2166648 10.02,7.59 C9.84666579,7.9633352 9.63833454,8.3099984 9.39499999,8.63 C9.15166544,8.9500016 8.81000219,9.3666641 8.36999999,9.88 L10.44,9.88 Z" id="2" fill="#FFFFFF"></path>
            </g>
        </g>
    </g>
</svg>