<?xml version="1.0" encoding="UTF-8"?>
<svg width="70px" height="70px" viewBox="0 0 70 70" version="1.1" xmlns="http://www.w3.org/2000/svg" xmlns:xlink="http://www.w3.org/1999/xlink">
    <!-- Generator: Sketch 46.2 (44496) - http://www.bohemiancoding.com/sketch -->
    <title>Pinterest</title>
    <desc>Created with Sketch.</desc>
    <defs>
        <polygon id="path-1" points="9.55223881e-05 2.03618217e-14 31.7958209 0 31.7958209 31.7958209 9.55223881e-05 31.7958209 9.55223881e-05 0"></polygon>
    </defs>
    <g id="Page-1" stroke="none" stroke-width="1" fill="none" fill-rule="evenodd">
        <g id="iPad-Pro" transform="translate(-373.000000, -733.000000)">
            <g id="Pinterest" transform="translate(373.000000, 733.000000)">
                <circle id="Oval-Copy-8" fill="#262626" cx="35" cy="35" r="35"></circle>
                <g id="Page-1" transform="translate(19.000000, 19.000000)">
                    <mask id="mask-2" fill="white">
                        <use xlink:href="#path-1"></use>
                    </mask>
                    <g id="Clip-2"></g>
                    <path d="M15.8978866,-4.7761194e-05 C7.11770746,-4.7761194e-05 9.55223881e-05,7.11780299 9.55223881e-05,15.8977433 C9.55223881e-05,22.6327881 4.19042388,28.3853851 10.1042149,30.701803 C9.96499104,29.4440119 9.83985672,27.5146985 10.1596179,26.141803 C10.4483343,24.9007284 12.0234985,18.2392358 12.0234985,18.2392358 C12.0234985,18.2392358 11.5480358,17.2868776 11.5480358,15.8788776 C11.5480358,13.6682507 12.8292299,12.0178627 14.4246925,12.0178627 C15.7811104,12.0178627 16.436394,13.0363701 16.436394,14.2573851 C16.436394,15.6214448 15.5678567,17.660609 15.1193791,19.5507582 C14.7449313,21.1330866 15.9129313,22.4233552 17.4737672,22.4233552 C20.2995582,22.4233552 22.4712597,19.4440119 22.4712597,15.1433552 C22.4712597,11.3370269 19.7362149,8.67553433 15.8307821,8.67553433 C11.3073194,8.67553433 8.65203582,12.0684896 8.65203582,15.5748776 C8.65203582,16.9410866 9.17836418,18.4064 9.8353194,19.2028179 C9.96499104,19.360191 9.98409552,19.4982209 9.94564776,19.6586985 C9.82481194,20.1611463 9.55663284,21.2407881 9.50409552,21.4616836 C9.43484179,21.7527881 9.27364776,21.8146388 8.97227463,21.6744597 C6.98684179,20.7502806 5.74528955,17.8471164 5.74528955,15.5154149 C5.74528955,10.5004896 9.38899104,5.89511642 16.2496478,5.89511642 C21.764394,5.89511642 26.0504836,9.82490746 26.0504836,15.0767284 C26.0504836,20.5558925 22.5959164,24.965206 17.8009313,24.965206 C16.1899463,24.965206 14.6754388,24.1284299 14.156991,23.1397731 C14.156991,23.1397731 13.3598567,26.1752358 13.1666627,26.9191164 C12.8077373,28.2998925 11.8389015,30.0307582 11.1907821,31.0867582 C12.6783045,31.5471761 14.2592,31.7960119 15.8978866,31.7960119 C24.6780657,31.7960119 31.7959164,24.6779224 31.7959164,15.8977433 C31.7959164,7.11780299 24.6780657,-4.7761194e-05 15.8978866,-4.7761194e-05" id="Fill-1" fill="#F4F4F4" mask="url(#mask-2)"></path>
                </g>
            </g>
        </g>
    </g>
</svg>