<?xml version="1.0" encoding="UTF-8"?>
<svg width="288px" height="288px" viewBox="0 0 288 288" version="1.1" xmlns="http://www.w3.org/2000/svg" xmlns:xlink="http://www.w3.org/1999/xlink">
    <!-- Generator: Sketch 47.1 (45422) - http://www.bohemiancoding.com/sketch -->
    <title>Buttons/ProPaulTXTNoir</title>
    <desc>Created with Sketch.</desc>
    <defs></defs>
    <g id="Tablet-v1.2" stroke="none" stroke-width="1" fill="none" fill-rule="evenodd">
        <g id="iPad-Pro-Copy" transform="translate(-539.000000, -271.000000)">
            <g id="Buttons/ProPaulTXTNoir" transform="translate(539.000000, 271.000000)">
                <g id="ProPaulTXTNoir">
                    <g id="Group-5">
                        <path d="M144,285.4995 C65.977,285.4995 2.5,222.0225 2.5,143.9995 C2.5,65.9765 65.977,2.4995 144,2.4995 C222.023,2.4995 285.5,65.9765 285.5,143.9995 C285.5,222.0225 222.023,285.4995 144,285.4995" id="Fill-1" fill="#262626"></path>
                        <path d="M144,0 C64.472,0 0,64.471 0,144 C0,223.529 64.472,288 144,288 C223.529,288 288,223.529 288,144 C288,64.471 223.529,0 144,0 M144,5 C181.128,5 216.034,19.458 242.288,45.712 C268.542,71.966 283,106.872 283,144 C283,181.128 268.542,216.034 242.288,242.288 C216.034,268.542 181.128,283 144,283 C106.872,283 71.966,268.542 45.712,242.288 C19.458,216.034 5,181.128 5,144 C5,106.872 19.458,71.966 45.712,45.712 C71.966,19.458 106.872,5 144,5" id="Fill-3" fill="#F4F4F4"></path>
                    </g>
                    <path d="M72.8910286,120.214441 C74.7345734,121.004532 76.2336973,122.209908 77.3884452,123.830607 C78.543193,125.451306 79.1205583,127.456891 79.1205583,129.847421 C79.1205583,132.237952 78.5634515,134.517025 77.4492211,136.68471 C76.3349906,138.852395 74.613024,140.625007 72.2832696,142.002601 C69.9535151,143.380195 67.0869471,144.068982 63.6834797,144.068982 L57.1196825,144.068982 L54.9317501,162.1802 L51.8929551,162.1802 L57.1804584,119.029311 L67.0261542,119.029311 C69.0925451,119.029311 71.0474837,119.42435 72.8910286,120.214441 Z M71.0373636,139.389238 C72.8201322,138.173713 74.0964134,136.725236 74.8662453,135.043761 C75.6360772,133.362286 76.0209874,131.75174 76.0209874,130.212077 C76.0209874,127.821546 75.1701333,125.846349 73.4683996,124.286426 C71.7666659,122.726504 69.4572048,121.946554 66.539947,121.946554 L59.854598,121.946554 L57.4843379,141.212514 L64.108911,141.212514 C66.9451338,141.212514 69.254595,140.604762 71.0373636,139.389238 Z M88.6015987,144.737517 C89.6145354,142.590091 91.1541762,140.898512 93.2205671,139.662729 C95.286958,138.426946 97.4140933,137.788806 99.6020366,137.748288 L99.1766053,140.54398 C97.3938367,140.54398 95.7022577,140.939019 94.1018177,141.72911 C92.5013776,142.5192 91.1744504,143.613156 90.1209962,145.011008 C89.067542,146.408861 88.4597891,147.938372 88.2977192,149.599589 L86.7175458,162.1802 L83.8610785,162.1802 L86.7783217,138.416823 L89.2701336,138.416823 L88.6015987,144.737517 Z M107.897947,161.238174 C106.054402,160.286013 104.585666,158.928698 103.491694,157.166188 C102.397723,155.403678 101.850745,153.367706 101.850745,151.05821 C101.850745,148.910784 102.336947,146.814037 103.309367,144.767905 C104.281786,142.721772 105.77078,141.040323 107.776395,139.723505 C109.78201,138.406687 112.263668,137.748288 115.221443,137.748288 C117.409386,137.748288 119.4251,138.234491 121.268645,139.20691 C123.11219,140.179329 124.570797,141.546773 125.64451,143.309283 C126.718223,145.071793 127.255071,147.067248 127.255071,149.295709 C127.255071,151.402618 126.778998,153.479107 125.826837,155.525239 C124.874677,157.571371 123.395811,159.273079 121.390197,160.630415 C119.384582,161.98775 116.882666,162.666407 113.884373,162.666407 C111.736947,162.666407 109.741492,162.190334 107.897947,161.238174 Z M119.749247,158.655198 C121.30917,157.601744 122.463901,156.254558 123.213474,154.6136 C123.963047,152.972643 124.337828,151.260806 124.337828,149.478037 C124.337828,147.654751 123.912401,146.034076 123.061534,144.615965 C122.210667,143.197853 121.086324,142.103898 119.688472,141.334066 C118.290619,140.564234 116.761107,140.179324 115.099891,140.179324 C112.87143,140.179324 110.977267,140.706043 109.417344,141.759498 C107.857422,142.812952 106.692562,144.160137 105.92273,145.801095 C105.152898,147.442052 104.767988,149.15389 104.767988,150.936658 C104.767988,152.719427 105.183286,154.319843 106.013894,155.737955 C106.844502,157.156066 107.968845,158.26015 109.386957,159.050241 C110.805068,159.840332 112.344709,160.235371 114.005925,160.235371 C116.274903,160.235371 118.189325,159.708652 119.749247,158.655198 Z M156.761771,120.214441 C158.605315,121.004532 160.104439,122.209908 161.259187,123.830607 C162.413935,125.451306 162.9913,127.456891 162.9913,129.847421 C162.9913,132.237952 162.434193,134.517025 161.319963,136.68471 C160.205733,138.852395 158.483766,140.625007 156.154012,142.002601 C153.824257,143.380195 150.957689,144.068982 147.554222,144.068982 L140.990425,144.068982 L138.802492,162.1802 L135.763697,162.1802 L141.0512,119.029311 L150.896896,119.029311 C152.963287,119.029311 154.918226,119.42435 156.761771,120.214441 Z M154.908106,139.389238 C156.690874,138.173713 157.967155,136.725236 158.736987,135.043761 C159.506819,133.362286 159.891729,131.75174 159.891729,130.212077 C159.891729,127.821546 159.040875,125.846349 157.339142,124.286426 C155.637408,122.726504 153.327947,121.946554 150.410689,121.946554 L143.72534,121.946554 L141.35508,141.212514 L147.979653,141.212514 C150.815876,141.212514 153.125337,140.604762 154.908106,139.389238 Z M193.865457,138.416823 L191.00899,162.1802 L188.152523,162.1802 L188.760282,157.378904 C187.66631,158.837533 186.146928,160.063168 184.202089,161.055846 C182.257251,162.048524 180.109857,162.544855 177.759844,162.544855 C175.733971,162.544855 173.890453,162.048524 172.229237,161.055846 C170.568021,160.063168 169.251223,158.685595 168.278804,156.923085 C167.306384,155.160575 166.820182,153.205636 166.820182,151.05821 C166.820182,149.032337 167.306384,146.986235 168.278804,144.919844 C169.251223,142.853453 170.719959,141.131487 172.685056,139.753893 C174.650154,138.376299 177.071036,137.687512 179.947776,137.687512 C182.459859,137.687512 184.627512,138.264878 186.450798,139.419625 C188.274084,140.574373 189.590882,142.124143 190.401231,144.068982 L191.373646,138.416823 L193.865457,138.416823 Z M189.793472,148.444847 C189.590885,146.094833 188.598222,144.119636 186.815453,142.519196 C185.032684,140.918756 182.865032,140.118548 180.312432,140.118548 C177.921901,140.118548 175.936575,140.695914 174.356394,141.850661 C172.776212,143.005409 171.621482,144.403241 170.892167,146.044199 C170.162853,147.685156 169.798201,149.255184 169.798201,150.754331 C169.798201,152.496582 170.20337,154.086869 171.013719,155.525239 C171.824068,156.963609 172.948411,158.098081 174.386782,158.928689 C175.825152,159.759297 177.455955,160.174595 179.279241,160.174595 C181.750807,160.174595 183.938718,159.404775 185.843039,157.865111 C187.74736,156.325447 188.942607,154.340121 189.428817,151.909073 L189.793472,148.444847 Z M224.861167,138.416823 L221.943923,162.1802 L219.391336,162.1802 L219.877543,156.953473 C218.864606,158.655206 217.375611,160.063167 215.410514,161.177398 C213.445417,162.291628 211.389186,162.848735 209.24176,162.848735 C207.215887,162.848735 205.595212,162.301757 204.379688,161.207786 C203.164164,160.113814 202.556411,158.655207 202.556411,156.831921 C202.556411,156.426746 202.57667,156.12287 202.617187,155.920282 L204.744344,138.416823 L207.600811,138.416823 L205.53443,155.190971 C205.37236,156.6496 205.726883,157.854977 206.598009,158.807138 C207.469134,159.759298 208.755544,160.275888 210.457278,160.356923 C211.996942,160.356923 213.496066,159.951754 214.954695,159.141405 C216.413324,158.331056 217.638959,157.216842 218.631637,155.798731 C219.624315,154.380619 220.221938,152.800461 220.424526,151.05821 L222.004699,138.416823 L224.861167,138.416823 Z M241.331435,115.990516 L235.618501,162.1802 L232.762034,162.1802 L238.414192,115.990516 L241.331435,115.990516 Z" id="ProPaul" fill="#F4F4F4"></path>
                </g>
            </g>
        </g>
    </g>
</svg>