<?xml version="1.0" encoding="UTF-8"?>
<svg width="70px" height="70px" viewBox="0 0 70 70" version="1.1" xmlns="http://www.w3.org/2000/svg" xmlns:xlink="http://www.w3.org/1999/xlink">
    <!-- Generator: Sketch 46.2 (44496) - http://www.bohemiancoding.com/sketch -->
    <title>Skype</title>
    <desc>Created with Sketch.</desc>
    <defs>
        <polygon id="path-1" points="0 31.8678033 0 -7.10542736e-15 31.6862951 -7.10542736e-15 31.6862951 31.8678033"></polygon>
    </defs>
    <g id="Page-1" stroke="none" stroke-width="1" fill="none" fill-rule="evenodd">
        <g id="iPad-Pro" transform="translate(-923.000000, -733.000000)">
            <g id="Skype" transform="translate(923.000000, 733.000000)">
                <circle id="Oval-Copy-10" fill="#262626" cx="35" cy="35" r="35"></circle>
                <g id="Page-1" transform="translate(19.000000, 19.000000)">
                    <mask id="mask-2" fill="white">
                        <use xlink:href="#path-1"></use>
                    </mask>
                    <g id="Clip-2"></g>
                    <path d="M30.5219672,18.536918 C30.6688525,17.6918033 30.7464918,16.8220328 30.7464918,15.933377 C30.7464918,7.65639344 24.0731803,0.945311475 15.8428852,0.945311475 C14.9594754,0.945311475 14.0949508,1.02190164 13.2545574,1.17036066 C11.9598689,0.424393443 10.4600656,0 8.86006557,0 C3.96721311,0 -0.000262295082,3.99055738 -0.000262295082,8.9122623 C-0.000262295082,10.5196066 0.422032787,12.0288525 1.16432787,13.3308852 C1.01639344,14.1754754 0.939803279,15.0452459 0.939803279,15.933377 C0.939803279,24.2108852 7.61259016,30.9230164 15.8428852,30.9230164 C16.7262951,30.9230164 17.5913443,30.845377 18.4317377,30.696918 C19.7264262,31.4428852 21.2262295,31.8678033 22.8241311,31.8678033 C27.7180328,31.8678033 31.6865574,27.8777705 31.6865574,22.9550164 C31.6865574,21.3476721 31.2621639,19.8389508 30.5219672,18.536918 M15.9042623,25.5207869 C10.6085246,25.5207869 8.19016393,22.8254426 8.19016393,20.8451148 C8.19016393,19.8295082 8.98491803,19.1307541 10.002623,19.1307541 C12.2672787,19.1307541 11.6776393,22.5290492 15.9042623,22.5290492 C18.0671475,22.5290492 19.3340328,21.227541 19.3340328,20.0068197 C19.3340328,19.2718689 18.9122623,18.455082 17.488,18.0978361 L12.7803279,16.9043934 C8.98859016,15.9407213 8.32445902,13.8308197 8.32445902,11.8756721 C8.32445902,7.81429508 12.0359344,6.3464918 15.5748197,6.3464918 C18.832,6.3464918 22.7045246,8.1437377 22.7045246,10.5809836 C22.7045246,11.624918 21.8289836,12.1930492 20.8107541,12.1930492 C18.8776393,12.1930492 19.1986885,9.47357377 15.3051803,9.47357377 C13.3720656,9.47357377 12.3522623,10.3784918 12.3522623,11.650623 C12.3522623,12.919082 13.8483934,13.3497705 15.1729836,13.6561311 L18.6578361,14.4419672 C22.4742295,15.3043934 23.4956066,17.5422951 23.4956066,19.6737049 C23.4956066,22.9739016 20.9398033,25.5207869 15.9042623,25.5207869" id="Fill-1" fill="#F4F4F4" mask="url(#mask-2)"></path>
                </g>
            </g>
        </g>
    </g>
</svg>