<?xml version="1.0" encoding="UTF-8"?>
<svg width="70px" height="70px" viewBox="0 0 70 70" version="1.1" xmlns="http://www.w3.org/2000/svg" xmlns:xlink="http://www.w3.org/1999/xlink">
    <!-- Generator: Sketch 47 (45396) - http://www.bohemiancoding.com/sketch -->
    <title>Buttons/Society6</title>
    <desc>Created with Sketch.</desc>
    <defs>
        <polygon id="path-1" points="5.86859893e-21 0 34.006035 0 34.006035 24.3500004 5.00113198e-15 24.3500004"></polygon>
    </defs>
    <g id="Tablet-v1.1" stroke="none" stroke-width="1" fill="none" fill-rule="evenodd">
        <g id="iPad-Pro" transform="translate(-974.000000, -733.000000)">
            <g id="Group-12" transform="translate(971.000000, 733.000000)">
                <g id="Buttons/Society6" transform="translate(3.000000, 0.000000)">
                    <g>
                        <g id="Instagram-Copy-4" fill="#262626">
                            <circle id="Oval-Copy" cx="35" cy="35" r="35"></circle>
                        </g>
                        <g id="Page-1" transform="translate(18.000000, 21.000000)">
                            <mask id="mask-2" fill="white">
                                <use xlink:href="#path-1"></use>
                            </mask>
                            <g id="Clip-2"></g>
                            <path d="M25.9518676,21.4930027 C25.6443108,21.9322427 25.2559946,22.2928694 24.7902749,22.5673133 C23.4990991,23.3273867 22.2383434,22.9960643 21.511076,21.6913203 C20.8587221,20.5200136 20.8221313,19.2363558 20.8566652,17.7874693 C20.7893296,16.3908115 21.1018663,14.884614 21.4268524,13.3823093 C21.6433655,12.3822867 23.0875078,11.3220336 24.4214449,11.1401523 C26.1752009,10.9009601 27.4783931,11.7623549 27.7465446,13.5293715 C28.1817359,16.395245 27.6389376,19.084752 25.9518676,21.4930027 M15.0991492,16.6457913 C15.0979584,16.715862 15.0986079,16.7851759 15.099041,16.8545979 C15.0845346,16.8720074 15.0731677,16.8897414 15.0568209,16.906394 C14.0427819,15.4189037 13.1412214,14.7580973 11.1068645,13.9931579 C10.2705827,13.6785963 9.41145875,13.4057744 8.61501536,13.0092473 C7.25260677,12.3309231 6.96377832,10.7201601 7.94101013,9.54723142 C8.34448226,9.06268329 8.87169162,8.75169011 9.45530264,8.52666341 C10.0797264,8.28584915 10.4573252,8.35083764 10.6414696,9.1312402 C10.9128687,10.2813527 11.3917957,11.3639895 12.377688,12.1199538 C13.4329728,12.9290119 15.0280247,12.7781651 15.8755652,11.8368592 C15.3975043,13.2988299 15.1291363,14.8960762 15.0991492,16.6457913 M29.75492,9.03456847 C28.5373586,8.72671118 27.3101625,8.83224989 26.0891369,9.0404077 C24.7174183,9.27430139 23.5247559,9.94137959 22.2147435,10.7505458 C23.7803496,5.22003602 28.0201089,2.2769549 32.1974041,1.75120775 C33.1504947,1.63150349 32.9382036,1.08358887 32.9192587,0.518589099 C32.8943597,-0.222236442 32.3574072,0.0324189588 32.0031918,0.0836744407 C29.3027324,0.47511926 26.6775112,1.15776875 24.278005,2.48446391 C20.6716548,4.47899421 17.937744,7.05150036 16.4256166,10.4128435 C16.4301634,9.61513953 16.013051,8.79429488 15.2394497,8.25719366 C14.7970052,7.9497689 14.3125572,7.72939196 13.7934671,7.60806569 C11.322728,7.03117118 8.85891735,7.03171185 6.41296903,7.75296515 C5.26783133,8.09066741 4.24004371,8.63685188 3.40516925,9.50992522 C1.60302259,11.3949159 1.76345879,14.2332152 3.76403969,15.8972882 C4.54965742,16.5507415 5.4519757,16.9843586 6.40463328,17.329414 C7.27090213,17.6432186 8.16564245,17.8935487 8.96490051,18.3664183 C10.0362073,19.0006238 10.3591365,19.901812 9.97731569,21.0899876 C9.59614441,22.2763249 8.67141702,22.7707132 7.54305908,23.0129332 C6.80918798,23.1705925 6.29431986,23.1047389 6.09296269,22.1836541 C5.83433781,21.0002364 5.30940184,19.9044072 4.33476819,19.1069195 C3.17912959,18.1611801 1.37406,18.3406825 0.488846257,19.4694925 C-0.384026245,20.5827313 -0.0620712878,22.0959575 1.24783288,23.0319648 C1.8249485,23.4442795 2.47178135,23.7139655 3.15282325,23.8818975 C5.55795886,24.4751202 7.99113291,24.5049652 10.392263,23.9594295 C12.9558862,23.3771283 14.8820949,22.0223183 15.3618879,18.9892698 C15.4611591,19.3772543 15.5874945,19.7486943 15.7405692,20.1025085 C16.018139,20.7791025 16.3750608,21.3669186 16.815665,21.8736341 C16.8155567,21.8583873 16.815665,21.8431404 16.8155567,21.8280016 C17.5833121,22.7203228 18.5908558,23.4057838 19.8053859,23.8313989 C21.4782743,24.4177011 23.1991203,24.4365164 24.9456231,24.2320351 C29.3949669,23.7112621 33.2295219,20.179608 33.9095895,15.9368652 C34.4405879,12.6260206 32.7406354,9.78945142 29.75492,9.03456847" id="Fill-1" fill="#FCFCFC" mask="url(#mask-2)"></path>
                        </g>
                    </g>
                </g>
            </g>
        </g>
    </g>
</svg>