<?xml version="1.0" encoding="UTF-8"?>
<svg width="70px" height="70px" viewBox="0 0 70 70" version="1.1" xmlns="http://www.w3.org/2000/svg" xmlns:xlink="http://www.w3.org/1999/xlink">
    <!-- Generator: Sketch 46.2 (44496) - http://www.bohemiancoding.com/sketch -->
    <title>UpWork</title>
    <desc>Created with Sketch.</desc>
    <defs>
        <polygon id="path-1" points="33.9857238 1.86046512e-05 33.9857238 23.8696 1.21907809e-05 23.8696 1.21907809e-05 1.86046512e-05"></polygon>
    </defs>
    <g id="Page-1" stroke="none" stroke-width="1" fill="none" fill-rule="evenodd">
        <g id="iPad-Pro" transform="translate(-923.000000, -623.000000)">
            <g id="UpWork" transform="translate(923.000000, 623.000000)">
                <circle id="Oval-Copy-5" fill="#262626" cx="35" cy="35" r="35"></circle>
                <g id="Page-1" transform="translate(18.000000, 26.000000)">
                    <mask id="mask-2" fill="white">
                        <use xlink:href="#path-1"></use>
                    </mask>
                    <g id="Clip-2"></g>
                    <path d="M26.2831834,2.14085581 C22.6853823,2.14085581 19.8971945,4.4560186 18.7637359,8.26346047 C17.0316144,5.69025116 15.7221448,2.60113488 14.9546088,1.86046512e-05 L11.0821779,1.86046512e-05 L11.0821779,9.9788093 C11.0821779,11.9453209 9.46295138,13.5492279 7.47742652,13.5492279 C5.49190166,13.5492279 3.87248729,11.9453209 3.87248729,9.9788093 L3.87248729,1.86046512e-05 L5.63535912e-05,1.86046512e-05 L5.63535912e-05,9.9788093 C-0.0140320442,14.0651349 3.34445414,17.4195535 7.4702884,17.4195535 C11.5961227,17.4195535 14.9546088,14.0651349 14.9546088,9.9788093 L14.9546088,8.30532093 C15.7080564,9.86029767 16.6303768,11.4292279 17.749747,12.8238326 L15.3770729,23.8696 L19.3409845,23.8696 L21.0588298,15.8573209 C22.5657249,16.8128558 24.2976586,17.4122977 26.2831834,17.4122977 C30.528863,17.4122977 33.9857801,13.9676465 33.9857801,9.76262326 C33.9857801,5.56466977 30.528863,2.14085581 26.2831834,2.14085581 M26.2831834,13.5631814 C24.7201227,13.5631814 23.2556807,12.9077395 21.9249845,11.8407628 L22.2488298,10.3345302 L22.2629182,10.2787163 C22.5516365,8.6748093 23.4668188,5.98308837 26.2831834,5.98308837 C28.3955039,5.98308837 30.1133492,7.68466977 30.1133492,9.77657674 C30.1063989,11.861786 28.3883657,13.5631814 26.2831834,13.5631814" id="Fill-1" fill="#F4F4F4" mask="url(#mask-2)"></path>
                </g>
            </g>
        </g>
    </g>
</svg>